<svg id="svgQrWrapper" viewBox="0 0 300 300" xmlns="http://www.w3.org/2000/svg" xmlns:xlink="http://www.w3.org/1999/xlink" width="300" height="300" style="width: 100%; height: 100%; background-color: rgb(255, 255, 255);"><svg><g transform="translate(9, 9)scale(0.95)" fill="none"><svg width="300" height="300"><style>.dot-color{ fill: #85f1ff; }.corners-square-color-0-0{ fill: #85f1ff; }.corners-dot-color-0-0{ fill: #85f1ff; }.corners-square-color-1-0{ fill: #85f1ff; }.corners-dot-color-1-0{ fill: #85f1ff; }.corners-square-color-0-1{ fill: #85f1ff; }.corners-dot-color-0-1{ fill: #85f1ff; }</style><defs><linearGradient id="background-color" gradientUnits="userSpaceOnUse" x1="0" y1="150" x2="300" y2="150"><stop offset="0%" stop-color="#153233"/><stop offset="100%" stop-color="#153233"/></linearGradient></defs><rect x="0" y="0" height="300" width="300" clip-path="url('#clip-path-background-color')" fill="url('#background-color')"/><g class="dot-color"><path d="M 5 125v 10h 10v -5a 5 5, 0, 0, 0, -5 -5" transform="rotate(-90,10,130)"/><rect x="5" y="135" width="10" height="10" transform="rotate(0,10,140)"/><path d="M 5 145v 10h 10v -5a 5 5, 0, 0, 0, -5 -5" transform="rotate(180,10,150)"/><path d="M 5 165v 10h 5a 5 5, 0, 0, 0, 0 -10" transform="rotate(180,10,170)"/><path d="M 5 185v 10h 10v -5a 5 5, 0, 0, 0, -5 -5" transform="rotate(-90,10,190)"/><path d="M 5 195v 10h 5a 5 5, 0, 0, 0, 0 -10" transform="rotate(90,10,200)"/><path d="M 15 95v 10h 5a 5 5, 0, 0, 0, 0 -10" transform="rotate(180,20,100)"/><path d="M 15 115v 10h 5a 5 5, 0, 0, 0, 0 -10" transform="rotate(-90,20,120)"/><path d="M 15 125v 10h 10v -5a 5 5, 0, 0, 0, -5 -5" transform="rotate(90,20,130)"/><rect x="15" y="145" width="10" height="10" transform="rotate(0,20,150)"/><path d="M 15 165v 10h 10v -5a 5 5, 0, 0, 0, -5 -5" transform="rotate(0,20,170)"/><rect x="15" y="175" width="10" height="10" transform="rotate(0,20,180)"/><rect x="15" y="185" width="10" height="10" transform="rotate(0,20,190)"/><rect x="25" y="95" width="10" height="10" transform="rotate(0,30,100)"/><path d="M 25 105v 10h 10v -5a 5 5, 0, 0, 0, -5 -5" transform="rotate(180,30,110)"/><rect x="25" y="145" width="10" height="10" transform="rotate(0,30,150)"/><rect x="25" y="175" width="10" height="10" transform="rotate(0,30,180)"/><rect x="25" y="185" width="10" height="10" transform="rotate(0,30,190)"/><circle cx="30" cy="210" r="5" transform="rotate(0,30,210)"/><path d="M 35 85v 10h 5a 5 5, 0, 0, 0, 0 -10" transform="rotate(-90,40,90)"/><rect x="35" y="95" width="10" height="10" transform="rotate(0,40,100)"/><path d="M 35 105v 10h 10v -5a 5 5, 0, 0, 0, -5 -5" transform="rotate(90,40,110)"/><rect x="35" y="145" width="10" height="10" transform="rotate(0,40,150)"/><rect x="35" y="175" width="10" height="10" transform="rotate(0,40,180)"/><rect x="35" y="185" width="10" height="10" transform="rotate(0,40,190)"/><rect x="45" y="95" width="10" height="10" transform="rotate(0,50,100)"/><path d="M 45 125v 10h 5a 5 5, 0, 0, 0, 0 -10" transform="rotate(180,50,130)"/><path d="M 45 145v 10h 5a 5 5, 0, 0, 0, 0 -10" transform="rotate(0,50,150)"/><path d="M 45 175v 10h 10v -5a 5 5, 0, 0, 0, -5 -5" transform="rotate(0,50,180)"/><rect x="45" y="185" width="10" height="10" transform="rotate(0,50,190)"/><circle cx="50" cy="210" r="5" transform="rotate(0,50,210)"/><path d="M 55 85v 10h 10v -5a 5 5, 0, 0, 0, -5 -5" transform="rotate(-90,60,90)"/><path d="M 55 95v 10h 10v -5a 5 5, 0, 0, 0, -5 -5" transform="rotate(90,60,100)"/><rect x="55" y="125" width="10" height="10" transform="rotate(0,60,130)"/><rect x="55" y="185" width="10" height="10" transform="rotate(0,60,190)"/><rect x="65" y="85" width="10" height="10" transform="rotate(0,70,90)"/><circle cx="70" cy="110" r="5" transform="rotate(0,70,110)"/><path d="M 65 125v 10h 5a 5 5, 0, 0, 0, 0 -10" transform="rotate(0,70,130)"/><circle cx="70" cy="150" r="5" transform="rotate(0,70,150)"/><path d="M 65 165v 10h 5a 5 5, 0, 0, 0, 0 -10" transform="rotate(180,70,170)"/><path d="M 65 185v 10h 5a 5 5, 0, 0, 0, 0 -10" transform="rotate(0,70,190)"/><circle cx="70" cy="210" r="5" transform="rotate(0,70,210)"/><path d="M 75 85v 10h 5a 5 5, 0, 0, 0, 0 -10" transform="rotate(0,80,90)"/><circle cx="80" cy="120" r="5" transform="rotate(0,80,120)"/><path d="M 75 165v 10h 5a 5 5, 0, 0, 0, 0 -10" transform="rotate(0,80,170)"/><path d="M 75 195v 10h 5a 5 5, 0, 0, 0, 0 -10" transform="rotate(180,80,200)"/><path d="M 85 15v 10h 5a 5 5, 0, 0, 0, 0 -10" transform="rotate(-90,90,20)"/><path d="M 85 25v 10h 5a 5 5, 0, 0, 0, 0 -10" transform="rotate(90,90,30)"/><circle cx="90" cy="70" r="5" transform="rotate(0,90,70)"/><path d="M 85 95v 10h 5a 5 5, 0, 0, 0, 0 -10" transform="rotate(-90,90,100)"/><path d="M 85 105v 10h 5a 5 5, 0, 0, 0, 0 -10" transform="rotate(90,90,110)"/><circle cx="90" cy="130" r="5" transform="rotate(0,90,130)"/><path d="M 85 175v 10h 5a 5 5, 0, 0, 0, 0 -10" transform="rotate(180,90,180)"/><rect x="85" y="195" width="10" height="10" transform="rotate(0,90,200)"/><path d="M 85 205v 10h 10v -5a 5 5, 0, 0, 0, -5 -5" transform="rotate(180,90,210)"/><path d="M 85 225v 10h 10v -5a 5 5, 0, 0, 0, -5 -5" transform="rotate(-90,90,230)"/><path d="M 85 235v 10h 5a 5 5, 0, 0, 0, 0 -10" transform="rotate(90,90,240)"/><circle cx="90" cy="260" r="5" transform="rotate(0,90,260)"/><circle cx="100" cy="10" r="5" transform="rotate(0,100,10)"/><path d="M 95 35v 10h 10v -5a 5 5, 0, 0, 0, -5 -5" transform="rotate(-90,100,40)"/><path d="M 95 45v 10h 5a 5 5, 0, 0, 0, 0 -10" transform="rotate(90,100,50)"/><path d="M 95 145v 10h 10v -5a 5 5, 0, 0, 0, -5 -5" transform="rotate(-90,100,150)"/><path d="M 95 155v 10h 10v -5a 5 5, 0, 0, 0, -5 -5" transform="rotate(180,100,160)"/><rect x="95" y="175" width="10" height="10" transform="rotate(0,100,180)"/><rect x="95" y="195" width="10" height="10" transform="rotate(0,100,200)"/><rect x="95" y="205" width="10" height="10" transform="rotate(0,100,210)"/><rect x="95" y="215" width="10" height="10" transform="rotate(0,100,220)"/><path d="M 95 225v 10h 10v -5a 5 5, 0, 0, 0, -5 -5" transform="rotate(90,100,230)"/><path d="M 95 275v 10h 5a 5 5, 0, 0, 0, 0 -10" transform="rotate(-90,100,280)"/><path d="M 95 285v 10h 10v -5a 5 5, 0, 0, 0, -5 -5" transform="rotate(180,100,290)"/><path d="M 105 15v 10h 5a 5 5, 0, 0, 0, 0 -10" transform="rotate(-90,110,20)"/><rect x="105" y="25" width="10" height="10" transform="rotate(0,110,30)"/><path d="M 105 35v 10h 10v -5a 5 5, 0, 0, 0, -5 -5" transform="rotate(90,110,40)"/><path d="M 105 65v 10h 5a 5 5, 0, 0, 0, 0 -10" transform="rotate(-90,110,70)"/><rect x="105" y="75" width="10" height="10" transform="rotate(0,110,80)"/><path d="M 105 85v 10h 5a 5 5, 0, 0, 0, 0 -10" transform="rotate(90,110,90)"/><path d="M 105 105v 10h 5a 5 5, 0, 0, 0, 0 -10" transform="rotate(180,110,110)"/><path d="M 105 125v 10h 5a 5 5, 0, 0, 0, 0 -10" transform="rotate(180,110,130)"/><rect x="105" y="145" width="10" height="10" transform="rotate(0,110,150)"/><path d="M 105 155v 10h 10v -5a 5 5, 0, 0, 0, -5 -5" transform="rotate(90,110,160)"/><path d="M 105 175v 10h 5a 5 5, 0, 0, 0, 0 -10" transform="rotate(0,110,180)"/><path d="M 105 195v 10h 5a 5 5, 0, 0, 0, 0 -10" transform="rotate(0,110,200)"/><path d="M 105 215v 10h 5a 5 5, 0, 0, 0, 0 -10" transform="rotate(0,110,220)"/><path d="M 105 235v 10h 5a 5 5, 0, 0, 0, 0 -10" transform="rotate(-90,110,240)"/><path d="M 105 245v 10h 10v -5a 5 5, 0, 0, 0, -5 -5" transform="rotate(180,110,250)"/><path d="M 105 285v 10h 5a 5 5, 0, 0, 0, 0 -10" transform="rotate(0,110,290)"/><path d="M 115 5v 10h 5a 5 5, 0, 0, 0, 0 -10" transform="rotate(180,120,10)"/><rect x="115" y="25" width="10" height="10" transform="rotate(0,120,30)"/><circle cx="120" cy="60" r="5" transform="rotate(0,120,60)"/><path d="M 115 105v 10h 10v -5a 5 5, 0, 0, 0, -5 -5" transform="rotate(0,120,110)"/><rect x="115" y="115" width="10" height="10" transform="rotate(0,120,120)"/><path d="M 115 125v 10h 10v -5a 5 5, 0, 0, 0, -5 -5" transform="rotate(90,120,130)"/><rect x="115" y="145" width="10" height="10" transform="rotate(0,120,150)"/><circle cx="120" cy="190" r="5" transform="rotate(0,120,190)"/><path d="M 115 225v 10h 5a 5 5, 0, 0, 0, 0 -10" transform="rotate(180,120,230)"/><path d="M 115 245v 10h 10v -5a 5 5, 0, 0, 0, -5 -5" transform="rotate(0,120,250)"/><path d="M 115 255v 10h 10v -5a 5 5, 0, 0, 0, -5 -5" transform="rotate(180,120,260)"/><rect x="125" y="5" width="10" height="10" transform="rotate(0,130,10)"/><rect x="125" y="25" width="10" height="10" transform="rotate(0,130,30)"/><rect x="125" y="35" width="10" height="10" transform="rotate(0,130,40)"/><path d="M 125 45v 10h 5a 5 5, 0, 0, 0, 0 -10" transform="rotate(90,130,50)"/><circle cx="130" cy="70" r="5" transform="rotate(0,130,70)"/><circle cx="130" cy="100" r="5" transform="rotate(0,130,100)"/><rect x="125" y="145" width="10" height="10" transform="rotate(0,130,150)"/><rect x="125" y="155" width="10" height="10" transform="rotate(0,130,160)"/><path d="M 125 165v 10h 10v -5a 5 5, 0, 0, 0, -5 -5" transform="rotate(180,130,170)"/><path d="M 125 215v 10h 5a 5 5, 0, 0, 0, 0 -10" transform="rotate(-90,130,220)"/><rect x="125" y="225" width="10" height="10" transform="rotate(0,130,230)"/><rect x="125" y="255" width="10" height="10" transform="rotate(0,130,260)"/><circle cx="130" cy="280" r="5" transform="rotate(0,130,280)"/><path d="M 135 5v 10h 5a 5 5, 0, 0, 0, 0 -10" transform="rotate(0,140,10)"/><path d="M 135 25v 10h 5a 5 5, 0, 0, 0, 0 -10" transform="rotate(0,140,30)"/><circle cx="140" cy="80" r="5" transform="rotate(0,140,80)"/><path d="M 135 115v 10h 5a 5 5, 0, 0, 0, 0 -10" transform="rotate(180,140,120)"/><path d="M 135 135v 10h 5a 5 5, 0, 0, 0, 0 -10" transform="rotate(-90,140,140)"/><rect x="135" y="145" width="10" height="10" transform="rotate(0,140,150)"/><rect x="135" y="165" width="10" height="10" transform="rotate(0,140,170)"/><path d="M 135 195v 10h 10v -5a 5 5, 0, 0, 0, -5 -5" transform="rotate(-90,140,200)"/><path d="M 135 205v 10h 5a 5 5, 0, 0, 0, 0 -10" transform="rotate(90,140,210)"/><rect x="135" y="225" width="10" height="10" transform="rotate(0,140,230)"/><rect x="135" y="255" width="10" height="10" transform="rotate(0,140,260)"/><path d="M 135 285v 10h 5a 5 5, 0, 0, 0, 0 -10" transform="rotate(180,140,290)"/><circle cx="150" cy="20" r="5" transform="rotate(0,150,20)"/><path d="M 145 55v 10h 10v -5a 5 5, 0, 0, 0, -5 -5" transform="rotate(-90,150,60)"/><path d="M 145 65v 10h 5a 5 5, 0, 0, 0, 0 -10" transform="rotate(90,150,70)"/><path d="M 145 95v 10h 5a 5 5, 0, 0, 0, 0 -10" transform="rotate(180,150,100)"/><rect x="145" y="115" width="10" height="10" transform="rotate(0,150,120)"/><path d="M 145 125v 10h 5a 5 5, 0, 0, 0, 0 -10" transform="rotate(90,150,130)"/><path d="M 145 145v 10h 10v -5a 5 5, 0, 0, 0, -5 -5" transform="rotate(0,150,150)"/><rect x="145" y="155" width="10" height="10" transform="rotate(0,150,160)"/><path d="M 145 165v 10h 10v -5a 5 5, 0, 0, 0, -5 -5" transform="rotate(90,150,170)"/><path d="M 145 195v 10h 5a 5 5, 0, 0, 0, 0 -10" transform="rotate(0,150,200)"/><path d="M 145 215v 10h 10v -5a 5 5, 0, 0, 0, -5 -5" transform="rotate(-90,150,220)"/><path d="M 145 225v 10h 10v -5a 5 5, 0, 0, 0, -5 -5" transform="rotate(90,150,230)"/><rect x="145" y="255" width="10" height="10" transform="rotate(0,150,260)"/><path d="M 145 265v 10h 5a 5 5, 0, 0, 0, 0 -10" transform="rotate(90,150,270)"/><rect x="145" y="285" width="10" height="10" transform="rotate(0,150,290)"/><path d="M 155 35v 10h 5a 5 5, 0, 0, 0, 0 -10" transform="rotate(-90,160,40)"/><rect x="155" y="45" width="10" height="10" transform="rotate(0,160,50)"/><rect x="155" y="55" width="10" height="10" transform="rotate(0,160,60)"/><path d="M 155 75v 10h 5a 5 5, 0, 0, 0, 0 -10" transform="rotate(-90,160,80)"/><rect x="155" y="85" width="10" height="10" transform="rotate(0,160,90)"/><rect x="155" y="95" width="10" height="10" transform="rotate(0,160,100)"/><rect x="155" y="115" width="10" height="10" transform="rotate(0,160,120)"/><circle cx="160" cy="140" r="5" transform="rotate(0,160,140)"/><path d="M 155 155v 10h 5a 5 5, 0, 0, 0, 0 -10" transform="rotate(0,160,160)"/><path d="M 155 215v 10h 5a 5 5, 0, 0, 0, 0 -10" transform="rotate(0,160,220)"/><path d="M 155 255v 10h 5a 5 5, 0, 0, 0, 0 -10" transform="rotate(0,160,260)"/><path d="M 155 285v 10h 5a 5 5, 0, 0, 0, 0 -10" transform="rotate(0,160,290)"/><circle cx="170" cy="10" r="5" transform="rotate(0,170,10)"/><path d="M 165 45v 10h 10v -5a 5 5, 0, 0, 0, -5 -5" transform="rotate(0,170,50)"/><rect x="165" y="55" width="10" height="10" transform="rotate(0,170,60)"/><path d="M 165 65v 10h 5a 5 5, 0, 0, 0, 0 -10" transform="rotate(90,170,70)"/><rect x="165" y="95" width="10" height="10" transform="rotate(0,170,100)"/><rect x="165" y="105" width="10" height="10" transform="rotate(0,170,110)"/><rect x="165" y="115" width="10" height="10" transform="rotate(0,170,120)"/><path d="M 165 125v 10h 5a 5 5, 0, 0, 0, 0 -10" transform="rotate(90,170,130)"/><path d="M 165 165v 10h 10v -5a 5 5, 0, 0, 0, -5 -5" transform="rotate(-90,170,170)"/><rect x="165" y="175" width="10" height="10" transform="rotate(0,170,180)"/><rect x="165" y="185" width="10" height="10" transform="rotate(0,170,190)"/><path d="M 165 195v 10h 5a 5 5, 0, 0, 0, 0 -10" transform="rotate(90,170,200)"/><circle cx="170" cy="230" r="5" transform="rotate(0,170,230)"/><path d="M 175 15v 10h 10v -5a 5 5, 0, 0, 0, -5 -5" transform="rotate(-90,180,20)"/><path d="M 175 25v 10h 10v -5a 5 5, 0, 0, 0, -5 -5" transform="rotate(180,180,30)"/><rect x="175" y="55" width="10" height="10" transform="rotate(0,180,60)"/><path d="M 175 85v 10h 10v -5a 5 5, 0, 0, 0, -5 -5" transform="rotate(-90,180,90)"/><rect x="175" y="95" width="10" height="10" transform="rotate(0,180,100)"/><rect x="175" y="105" width="10" height="10" transform="rotate(0,180,110)"/><rect x="175" y="115" width="10" height="10" transform="rotate(0,180,120)"/><path d="M 175 145v 10h 5a 5 5, 0, 0, 0, 0 -10" transform="rotate(180,180,150)"/><rect x="175" y="165" width="10" height="10" transform="rotate(0,180,170)"/><path d="M 175 205v 10h 5a 5 5, 0, 0, 0, 0 -10" transform="rotate(180,180,210)"/><path d="M 175 255v 10h 5a 5 5, 0, 0, 0, 0 -10" transform="rotate(-90,180,260)"/><path d="M 175 265v 10h 5a 5 5, 0, 0, 0, 0 -10" transform="rotate(90,180,270)"/><path d="M 175 285v 10h 5a 5 5, 0, 0, 0, 0 -10" transform="rotate(180,180,290)"/><path d="M 185 5v 10h 5a 5 5, 0, 0, 0, 0 -10" transform="rotate(-90,190,10)"/><rect x="185" y="15" width="10" height="10" transform="rotate(0,190,20)"/><rect x="185" y="25" width="10" height="10" transform="rotate(0,190,30)"/><path d="M 185 35v 10h 5a 5 5, 0, 0, 0, 0 -10" transform="rotate(90,190,40)"/><rect x="185" y="55" width="10" height="10" transform="rotate(0,190,60)"/><path d="M 185 65v 10h 5a 5 5, 0, 0, 0, 0 -10" transform="rotate(90,190,70)"/><path d="M 185 85v 10h 5a 5 5, 0, 0, 0, 0 -10" transform="rotate(0,190,90)"/><rect x="185" y="115" width="10" height="10" transform="rotate(0,190,120)"/><rect x="185" y="145" width="10" height="10" transform="rotate(0,190,150)"/><rect x="185" y="165" width="10" height="10" transform="rotate(0,190,170)"/><path d="M 185 175v 10h 5a 5 5, 0, 0, 0, 0 -10" transform="rotate(90,190,180)"/><path d="M 185 195v 10h 5a 5 5, 0, 0, 0, 0 -10" transform="rotate(-90,190,200)"/><path d="M 185 205v 10h 10v -5a 5 5, 0, 0, 0, -5 -5" transform="rotate(90,190,210)"/><path d="M 185 285v 10h 5a 5 5, 0, 0, 0, 0 -10" transform="rotate(0,190,290)"/><path d="M 195 45v 10h 10v -5a 5 5, 0, 0, 0, -5 -5" transform="rotate(-90,200,50)"/><path d="M 195 55v 10h 10v -5a 5 5, 0, 0, 0, -5 -5" transform="rotate(90,200,60)"/><path d="M 195 105v 10h 5a 5 5, 0, 0, 0, 0 -10" transform="rotate(-90,200,110)"/><path d="M 195 115v 10h 10v -5a 5 5, 0, 0, 0, -5 -5" transform="rotate(90,200,120)"/><path d="M 195 135v 10h 10v -5a 5 5, 0, 0, 0, -5 -5" transform="rotate(-90,200,140)"/><rect x="195" y="145" width="10" height="10" transform="rotate(0,200,150)"/><rect x="195" y="155" width="10" height="10" transform="rotate(0,200,160)"/><path d="M 195 165v 10h 10v -5a 5 5, 0, 0, 0, -5 -5" transform="rotate(90,200,170)"/><path d="M 195 185v 10h 5a 5 5, 0, 0, 0, 0 -10" transform="rotate(180,200,190)"/><path d="M 195 215v 10h 10v -5a 5 5, 0, 0, 0, -5 -5" transform="rotate(-90,200,220)"/><rect x="195" y="225" width="10" height="10" transform="rotate(0,200,230)"/><rect x="195" y="235" width="10" height="10" transform="rotate(0,200,240)"/><rect x="195" y="245" width="10" height="10" transform="rotate(0,200,250)"/><path d="M 195 255v 10h 10v -5a 5 5, 0, 0, 0, -5 -5" transform="rotate(180,200,260)"/><circle cx="200" cy="280" r="5" transform="rotate(0,200,280)"/><path d="M 205 5v 10h 5a 5 5, 0, 0, 0, 0 -10" transform="rotate(-90,210,10)"/><rect x="205" y="15" width="10" height="10" transform="rotate(0,210,20)"/><path d="M 205 25v 10h 5a 5 5, 0, 0, 0, 0 -10" transform="rotate(90,210,30)"/><path d="M 205 45v 10h 5a 5 5, 0, 0, 0, 0 -10" transform="rotate(0,210,50)"/><path d="M 205 65v 10h 5a 5 5, 0, 0, 0, 0 -10" transform="rotate(-90,210,70)"/><rect x="205" y="75" width="10" height="10" transform="rotate(0,210,80)"/><path d="M 205 85v 10h 10v -5a 5 5, 0, 0, 0, -5 -5" transform="rotate(180,210,90)"/><path d="M 205 125v 10h 10v -5a 5 5, 0, 0, 0, -5 -5" transform="rotate(-90,210,130)"/><rect x="205" y="135" width="10" height="10" transform="rotate(0,210,140)"/><rect x="205" y="145" width="10" height="10" transform="rotate(0,210,150)"/><path d="M 205 185v 10h 5a 5 5, 0, 0, 0, 0 -10" transform="rotate(0,210,190)"/><path d="M 205 205v 10h 10v -5a 5 5, 0, 0, 0, -5 -5" transform="rotate(-90,210,210)"/><rect x="205" y="215" width="10" height="10" transform="rotate(0,210,220)"/><rect x="205" y="225" width="10" height="10" transform="rotate(0,210,230)"/><rect x="205" y="235" width="10" height="10" transform="rotate(0,210,240)"/><rect x="205" y="245" width="10" height="10" transform="rotate(0,210,250)"/><rect x="205" y="255" width="10" height="10" transform="rotate(0,210,260)"/><path d="M 215 85v 10h 10v -5a 5 5, 0, 0, 0, -5 -5" transform="rotate(0,220,90)"/><rect x="215" y="95" width="10" height="10" transform="rotate(0,220,100)"/><path d="M 215 105v 10h 5a 5 5, 0, 0, 0, 0 -10" transform="rotate(90,220,110)"/><rect x="215" y="125" width="10" height="10" transform="rotate(0,220,130)"/><path d="M 215 145v 10h 10v -5a 5 5, 0, 0, 0, -5 -5" transform="rotate(0,220,150)"/><rect x="215" y="155" width="10" height="10" transform="rotate(0,220,160)"/><rect x="215" y="165" width="10" height="10" transform="rotate(0,220,170)"/><path d="M 215 175v 10h 5a 5 5, 0, 0, 0, 0 -10" transform="rotate(90,220,180)"/><path d="M 215 195v 10h 5a 5 5, 0, 0, 0, 0 -10" transform="rotate(-90,220,200)"/><rect x="215" y="205" width="10" height="10" transform="rotate(0,220,210)"/><rect x="215" y="245" width="10" height="10" transform="rotate(0,220,250)"/><rect x="215" y="255" width="10" height="10" transform="rotate(0,220,260)"/><path d="M 215 285v 10h 5a 5 5, 0, 0, 0, 0 -10" transform="rotate(180,220,290)"/><path d="M 225 95v 10h 5a 5 5, 0, 0, 0, 0 -10" transform="rotate(0,230,100)"/><rect x="225" y="125" width="10" height="10" transform="rotate(0,230,130)"/><path d="M 225 155v 10h 5a 5 5, 0, 0, 0, 0 -10" transform="rotate(0,230,160)"/><rect x="225" y="205" width="10" height="10" transform="rotate(0,230,210)"/><circle cx="230" cy="230" r="5" transform="rotate(0,230,230)"/><rect x="225" y="245" width="10" height="10" transform="rotate(0,230,250)"/><rect x="225" y="255" width="10" height="10" transform="rotate(0,230,260)"/><rect x="225" y="265" width="10" height="10" transform="rotate(0,230,270)"/><rect x="225" y="275" width="10" height="10" transform="rotate(0,230,280)"/><rect x="225" y="285" width="10" height="10" transform="rotate(0,230,290)"/><path d="M 235 105v 10h 10v -5a 5 5, 0, 0, 0, -5 -5" transform="rotate(-90,240,110)"/><rect x="235" y="115" width="10" height="10" transform="rotate(0,240,120)"/><path d="M 235 125v 10h 10v -5a 5 5, 0, 0, 0, -5 -5" transform="rotate(90,240,130)"/><path d="M 235 145v 10h 5a 5 5, 0, 0, 0, 0 -10" transform="rotate(180,240,150)"/><path d="M 235 175v 10h 5a 5 5, 0, 0, 0, 0 -10" transform="rotate(180,240,180)"/><path d="M 235 195v 10h 10v -5a 5 5, 0, 0, 0, -5 -5" transform="rotate(-90,240,200)"/><rect x="235" y="205" width="10" height="10" transform="rotate(0,240,210)"/><rect x="235" y="245" width="10" height="10" transform="rotate(0,240,250)"/><path d="M 235 255v 10h 10v -5a 5 5, 0, 0, 0, -5 -5" transform="rotate(90,240,260)"/><rect x="235" y="285" width="10" height="10" transform="rotate(0,240,290)"/><path d="M 245 105v 10h 5a 5 5, 0, 0, 0, 0 -10" transform="rotate(0,250,110)"/><rect x="245" y="145" width="10" height="10" transform="rotate(0,250,150)"/><path d="M 245 155v 10h 5a 5 5, 0, 0, 0, 0 -10" transform="rotate(90,250,160)"/><rect x="245" y="175" width="10" height="10" transform="rotate(0,250,180)"/><rect x="245" y="195" width="10" height="10" transform="rotate(0,250,200)"/><rect x="245" y="205" width="10" height="10" transform="rotate(0,250,210)"/><rect x="245" y="215" width="10" height="10" transform="rotate(0,250,220)"/><rect x="245" y="225" width="10" height="10" transform="rotate(0,250,230)"/><rect x="245" y="235" width="10" height="10" transform="rotate(0,250,240)"/><rect x="245" y="245" width="10" height="10" transform="rotate(0,250,250)"/><path d="M 245 275v 10h 10v -5a 5 5, 0, 0, 0, -5 -5" transform="rotate(-90,250,280)"/><path d="M 245 285v 10h 10v -5a 5 5, 0, 0, 0, -5 -5" transform="rotate(90,250,290)"/><path d="M 255 95v 10h 5a 5 5, 0, 0, 0, 0 -10" transform="rotate(180,260,100)"/><path d="M 255 125v 10h 10v -5a 5 5, 0, 0, 0, -5 -5" transform="rotate(-90,260,130)"/><rect x="255" y="135" width="10" height="10" transform="rotate(0,260,140)"/><rect x="255" y="145" width="10" height="10" transform="rotate(0,260,150)"/><rect x="255" y="175" width="10" height="10" transform="rotate(0,260,180)"/><path d="M 255 195v 10h 10v -5a 5 5, 0, 0, 0, -5 -5" transform="rotate(0,260,200)"/><path d="M 255 205v 10h 10v -5a 5 5, 0, 0, 0, -5 -5" transform="rotate(90,260,210)"/><path d="M 255 235v 10h 10v -5a 5 5, 0, 0, 0, -5 -5" transform="rotate(0,260,240)"/><rect x="255" y="245" width="10" height="10" transform="rotate(0,260,250)"/><rect x="255" y="255" width="10" height="10" transform="rotate(0,260,260)"/><rect x="255" y="265" width="10" height="10" transform="rotate(0,260,270)"/><rect x="255" y="275" width="10" height="10" transform="rotate(0,260,280)"/><path d="M 265 85v 10h 10v -5a 5 5, 0, 0, 0, -5 -5" transform="rotate(-90,270,90)"/><rect x="265" y="95" width="10" height="10" transform="rotate(0,270,100)"/><path d="M 265 115v 10h 10v -5a 5 5, 0, 0, 0, -5 -5" transform="rotate(-90,270,120)"/><rect x="265" y="125" width="10" height="10" transform="rotate(0,270,130)"/><rect x="265" y="145" width="10" height="10" transform="rotate(0,270,150)"/><path d="M 265 155v 10h 5a 5 5, 0, 0, 0, 0 -10" transform="rotate(90,270,160)"/><path d="M 265 175v 10h 5a 5 5, 0, 0, 0, 0 -10" transform="rotate(0,270,180)"/><path d="M 265 215v 10h 5a 5 5, 0, 0, 0, 0 -10" transform="rotate(180,270,220)"/><path d="M 265 245v 10h 5a 5 5, 0, 0, 0, 0 -10" transform="rotate(0,270,250)"/><path d="M 265 265v 10h 10v -5a 5 5, 0, 0, 0, -5 -5" transform="rotate(0,270,270)"/><rect x="265" y="275" width="10" height="10" transform="rotate(0,270,280)"/><path d="M 265 285v 10h 5a 5 5, 0, 0, 0, 0 -10" transform="rotate(90,270,290)"/><path d="M 275 85v 10h 10v -5a 5 5, 0, 0, 0, -5 -5" transform="rotate(0,280,90)"/><rect x="275" y="95" width="10" height="10" transform="rotate(0,280,100)"/><rect x="275" y="105" width="10" height="10" transform="rotate(0,280,110)"/><rect x="275" y="115" width="10" height="10" transform="rotate(0,280,120)"/><path d="M 275 125v 10h 10v -5a 5 5, 0, 0, 0, -5 -5" transform="rotate(90,280,130)"/><rect x="275" y="145" width="10" height="10" transform="rotate(0,280,150)"/><path d="M 275 185v 10h 5a 5 5, 0, 0, 0, 0 -10" transform="rotate(-90,280,190)"/><rect x="275" y="195" width="10" height="10" transform="rotate(0,280,200)"/><rect x="275" y="205" width="10" height="10" transform="rotate(0,280,210)"/><rect x="275" y="215" width="10" height="10" transform="rotate(0,280,220)"/><path d="M 275 225v 10h 10v -5a 5 5, 0, 0, 0, -5 -5" transform="rotate(180,280,230)"/><path d="M 285 95v 10h 5a 5 5, 0, 0, 0, 0 -10" transform="rotate(0,290,100)"/><path d="M 285 135v 10h 5a 5 5, 0, 0, 0, 0 -10" transform="rotate(-90,290,140)"/><rect x="285" y="145" width="10" height="10" transform="rotate(0,290,150)"/><path d="M 285 155v 10h 5a 5 5, 0, 0, 0, 0 -10" transform="rotate(90,290,160)"/><path d="M 285 195v 10h 10v -5a 5 5, 0, 0, 0, -5 -5" transform="rotate(0,290,200)"/><rect x="285" y="205" width="10" height="10" transform="rotate(0,290,210)"/><rect x="285" y="215" width="10" height="10" transform="rotate(0,290,220)"/><rect x="285" y="225" width="10" height="10" transform="rotate(0,290,230)"/><rect x="285" y="235" width="10" height="10" transform="rotate(0,290,240)"/><rect x="285" y="245" width="10" height="10" transform="rotate(0,290,250)"/><path d="M 285 255v 10h 5a 5 5, 0, 0, 0, 0 -10" transform="rotate(90,290,260)"/><circle cx="290" cy="290" r="5" transform="rotate(0,290,290)"/></g><g class="green-dots"/><g class="corners-square-color-0-0"><path clip-rule="evenodd" d="M 5 30v 20a 25 25, 0, 0, 0, 25 25h 20a 25 25, 0, 0, 0, 25 -25v -20a 25 25, 0, 0, 0, -25 -25h -20a 25 25, 0, 0, 0, -25 25M 30 15h 20a 15 15, 0, 0, 1, 15 15v 20a 15 15, 0, 0, 1, -15 15h -20a 15 15, 0, 0, 1, -15 -15v -20a 15 15, 0, 0, 1, 15 -15" transform="rotate(0,40,40)"/></g><g class="corners-dot-color-0-0"><rect x="25" y="25" width="30" height="30" rx="7.5" ry="7.5" transform="rotate(0,40,40)"/></g><g class="corners-square-color-1-0"><path clip-rule="evenodd" d="M 225 30v 20a 25 25, 0, 0, 0, 25 25h 20a 25 25, 0, 0, 0, 25 -25v -20a 25 25, 0, 0, 0, -25 -25h -20a 25 25, 0, 0, 0, -25 25M 250 15h 20a 15 15, 0, 0, 1, 15 15v 20a 15 15, 0, 0, 1, -15 15h -20a 15 15, 0, 0, 1, -15 -15v -20a 15 15, 0, 0, 1, 15 -15" transform="rotate(90,260,40)"/></g><g class="corners-dot-color-1-0"><rect x="245" y="25" width="30" height="30" rx="7.5" ry="7.5" transform="rotate(90,260,40)"/></g><g class="corners-square-color-0-1"><path clip-rule="evenodd" d="M 5 250v 20a 25 25, 0, 0, 0, 25 25h 20a 25 25, 0, 0, 0, 25 -25v -20a 25 25, 0, 0, 0, -25 -25h -20a 25 25, 0, 0, 0, -25 25M 30 235h 20a 15 15, 0, 0, 1, 15 15v 20a 15 15, 0, 0, 1, -15 15h -20a 15 15, 0, 0, 1, -15 -15v -20a 15 15, 0, 0, 1, 15 -15" transform="rotate(-90,40,260)"/></g><g class="corners-dot-color-0-1"><rect x="25" y="245" width="30" height="30" rx="7.5" ry="7.5" transform="rotate(-90,40,260)"/></g></svg></g></svg></svg>