<?xml version="1.0" encoding="UTF-8"?><svg id="b" xmlns="http://www.w3.org/2000/svg" width="302" height="302" viewBox="0 0 302 302"><g id="c"><rect width="302" height="302" rx="32.43" ry="32.43" fill="#0a1d30"/><path d="M13.25,136.75h9.5v-9.5h-4.75c-2.62,0-4.75,2.13-4.75,4.75" fill="#31ffff"/><rect x="13.25" y="136.75" width="9.5" height="9.5" fill="#31ffff"/><path d="M22.75,155.75v-9.5h-9.5v4.75c0,2.62,2.13,4.75,4.75,4.75" fill="#31ffff"/><path d="M22.75,174.75v-9.5h-4.75c-2.62,0-4.75,2.13-4.75,4.75s2.13,4.75,4.75,4.75" fill="#31ffff"/><path d="M13.25,193.75h9.5v-9.5h-4.75c-2.62,0-4.75,2.13-4.75,4.75" fill="#31ffff"/><path d="M22.75,193.75h-9.5v4.75c0,2.62,2.13,4.75,4.75,4.75s4.75-2.13,4.75-4.75" fill="#31ffff"/><path d="M32.25,108.25v-9.5h-4.75c-2.62,0-4.75,2.13-4.75,4.75s2.13,4.75,4.75,4.75" fill="#31ffff"/><path d="M22.75,127.25h9.5v-4.75c0-2.62-2.13-4.75-4.75-4.75s-4.75,2.13-4.75,4.75" fill="#31ffff"/><path d="M32.25,127.25h-9.5v9.5h4.75c2.62,0,4.75-2.13,4.75-4.75" fill="#31ffff"/><rect x="22.75" y="146.25" width="9.5" height="9.5" fill="#31ffff"/><path d="M22.75,165.25v9.5h9.5v-4.75c0-2.62-2.13-4.75-4.75-4.75" fill="#31ffff"/><rect x="22.75" y="174.75" width="9.5" height="9.5" fill="#31ffff"/><rect x="22.75" y="184.25" width="9.5" height="9.5" fill="#31ffff"/><rect x="32.25" y="98.75" width="9.5" height="9.5" fill="#31ffff"/><path d="M41.75,117.75v-9.5h-9.5v4.75c0,2.62,2.13,4.75,4.75,4.75" fill="#31ffff"/><rect x="32.25" y="146.25" width="9.5" height="9.5" fill="#31ffff"/><rect x="32.25" y="174.75" width="9.5" height="9.5" fill="#31ffff"/><rect x="32.25" y="184.25" width="9.5" height="9.5" fill="#31ffff"/><circle cx="37" cy="208" r="4.75" fill="#31ffff"/><path d="M41.75,98.75h9.5v-4.75c0-2.62-2.13-4.75-4.75-4.75s-4.75,2.13-4.75,4.75" fill="#31ffff"/><rect x="41.75" y="98.75" width="9.5" height="9.5" fill="#31ffff"/><path d="M51.25,108.25h-9.5v9.5h4.75c2.62,0,4.75-2.13,4.75-4.75" fill="#31ffff"/><rect x="41.75" y="146.25" width="9.5" height="9.5" fill="#31ffff"/><rect x="41.75" y="174.75" width="9.5" height="9.5" fill="#31ffff"/><rect x="41.75" y="184.25" width="9.5" height="9.5" fill="#31ffff"/><rect x="51.25" y="98.75" width="9.5" height="9.5" fill="#31ffff"/><path d="M60.75,136.75v-9.5h-4.75c-2.62,0-4.75,2.13-4.75,4.75s2.13,4.75,4.75,4.75" fill="#31ffff"/><path d="M51.25,146.25v9.5h4.75c2.62,0,4.75-2.13,4.75-4.75s-2.13-4.75-4.75-4.75" fill="#31ffff"/><path d="M51.25,174.75v9.5h9.5v-4.75c0-2.62-2.13-4.75-4.75-4.75" fill="#31ffff"/><rect x="51.25" y="184.25" width="9.5" height="9.5" fill="#31ffff"/><circle cx="56" cy="208" r="4.75" fill="#31ffff"/><path d="M60.75,98.75h9.5v-9.5h-4.75c-2.62,0-4.75,2.13-4.75,4.75" fill="#31ffff"/><path d="M70.25,98.75h-9.5v9.5h4.75c2.62,0,4.75-2.13,4.75-4.75" fill="#31ffff"/><rect x="60.75" y="127.25" width="9.5" height="9.5" fill="#31ffff"/><rect x="60.75" y="184.25" width="9.5" height="9.5" fill="#31ffff"/><rect x="70.25" y="89.25" width="9.5" height="9.5" fill="#31ffff"/><circle cx="75" cy="113" r="4.75" fill="#31ffff"/><path d="M70.25,127.25v9.5h4.75c2.62,0,4.75-2.13,4.75-4.75s-2.13-4.75-4.75-4.75" fill="#31ffff"/><circle cx="75" cy="151" r="4.75" fill="#31ffff"/><path d="M79.75,174.75v-9.5h-4.75c-2.62,0-4.75,2.13-4.75,4.75s2.13,4.75,4.75,4.75" fill="#31ffff"/><path d="M70.25,184.25v9.5h4.75c2.62,0,4.75-2.13,4.75-4.75s-2.13-4.75-4.75-4.75" fill="#31ffff"/><circle cx="75" cy="208" r="4.75" fill="#31ffff"/><path d="M79.75,89.25v9.5h4.75c2.62,0,4.75-2.13,4.75-4.75s-2.13-4.75-4.75-4.75" fill="#31ffff"/><circle cx="84.5" cy="122.5" r="4.75" fill="#31ffff"/><path d="M79.75,165.25v9.5h4.75c2.62,0,4.75-2.13,4.75-4.75s-2.13-4.75-4.75-4.75" fill="#31ffff"/><path d="M89.25,203.25v-9.5h-4.75c-2.62,0-4.75,2.13-4.75,4.75s2.13,4.75,4.75,4.75" fill="#31ffff"/><path d="M89.25,32.25h9.5v-4.75c0-2.62-2.13-4.75-4.75-4.75s-4.75,2.13-4.75,4.75" fill="#31ffff"/><path d="M98.75,32.25h-9.5v4.75c0,2.62,2.13,4.75,4.75,4.75s4.75-2.13,4.75-4.75" fill="#31ffff"/><circle cx="94" cy="75" r="4.75" fill="#31ffff"/><path d="M89.25,108.25h9.5v-4.75c0-2.62-2.13-4.75-4.75-4.75s-4.75,2.13-4.75,4.75" fill="#31ffff"/><path d="M98.75,108.25h-9.5v4.75c0,2.62,2.13,4.75,4.75,4.75s4.75-2.13,4.75-4.75" fill="#31ffff"/><circle cx="94" cy="132" r="4.75" fill="#31ffff"/><path d="M98.75,184.25v-9.5h-4.75c-2.62,0-4.75,2.13-4.75,4.75s2.13,4.75,4.75,4.75" fill="#31ffff"/><rect x="89.25" y="193.75" width="9.5" height="9.5" fill="#31ffff"/><path d="M98.75,212.75v-9.5h-9.5v4.75c0,2.62,2.13,4.75,4.75,4.75" fill="#31ffff"/><path d="M89.25,231.75h9.5v-9.5h-4.75c-2.62,0-4.75,2.13-4.75,4.75" fill="#31ffff"/><path d="M98.75,231.75h-9.5v4.75c0,2.62,2.13,4.75,4.75,4.75s4.75-2.13,4.75-4.75" fill="#31ffff"/><circle cx="94" cy="255.5" r="4.75" fill="#31ffff"/><circle cx="103.5" cy="18" r="4.75" fill="#31ffff"/><path d="M98.75,51.25h9.5v-9.5h-4.75c-2.62,0-4.75,2.13-4.75,4.75" fill="#31ffff"/><path d="M108.25,51.25h-9.5v4.75c0,2.62,2.13,4.75,4.75,4.75s4.75-2.13,4.75-4.75" fill="#31ffff"/><path d="M98.75,155.75h9.5v-9.5h-4.75c-2.62,0-4.75,2.13-4.75,4.75" fill="#31ffff"/><path d="M108.25,165.25v-9.5h-9.5v4.75c0,2.62,2.13,4.75,4.75,4.75" fill="#31ffff"/><rect x="98.75" y="174.75" width="9.5" height="9.5" fill="#31ffff"/><rect x="98.75" y="193.75" width="9.5" height="9.5" fill="#31ffff"/><rect x="98.75" y="203.25" width="9.5" height="9.5" fill="#31ffff"/><rect x="98.75" y="212.75" width="9.5" height="9.5" fill="#31ffff"/><path d="M108.25,222.25h-9.5v9.5h4.75c2.62,0,4.75-2.13,4.75-4.75" fill="#31ffff"/><path d="M98.75,279.25h9.5v-4.75c0-2.62-2.13-4.75-4.75-4.75s-4.75,2.13-4.75,4.75" fill="#31ffff"/><path d="M108.25,288.75v-9.5h-9.5v4.75c0,2.62,2.13,4.75,4.75,4.75" fill="#31ffff"/><path d="M108.25,32.25h9.5v-4.75c0-2.62-2.13-4.75-4.75-4.75s-4.75,2.13-4.75,4.75" fill="#31ffff"/><rect x="108.25" y="32.25" width="9.5" height="9.5" fill="#31ffff"/><path d="M117.75,41.75h-9.5v9.5h4.75c2.62,0,4.75-2.13,4.75-4.75" fill="#31ffff"/><path d="M108.25,79.75h9.5v-4.75c0-2.62-2.13-4.75-4.75-4.75s-4.75,2.13-4.75,4.75" fill="#31ffff"/><rect x="108.25" y="79.75" width="9.5" height="9.5" fill="#31ffff"/><path d="M117.75,89.25h-9.5v4.75c0,2.62,2.13,4.75,4.75,4.75s4.75-2.13,4.75-4.75" fill="#31ffff"/><path d="M117.75,117.75v-9.5h-4.75c-2.62,0-4.75,2.13-4.75,4.75s2.13,4.75,4.75,4.75" fill="#31ffff"/><path d="M117.75,136.75v-9.5h-4.75c-2.62,0-4.75,2.13-4.75,4.75s2.13,4.75,4.75,4.75" fill="#31ffff"/><rect x="108.25" y="146.25" width="9.5" height="9.5" fill="#31ffff"/><path d="M117.75,155.75h-9.5v9.5h4.75c2.62,0,4.75-2.13,4.75-4.75" fill="#31ffff"/><path d="M108.25,174.75v9.5h4.75c2.62,0,4.75-2.13,4.75-4.75s-2.13-4.75-4.75-4.75" fill="#31ffff"/><path d="M108.25,193.75v9.5h4.75c2.62,0,4.75-2.13,4.75-4.75s-2.13-4.75-4.75-4.75" fill="#31ffff"/><path d="M108.25,212.75v9.5h4.75c2.62,0,4.75-2.13,4.75-4.75s-2.13-4.75-4.75-4.75" fill="#31ffff"/><path d="M108.25,241.25h9.5v-4.75c0-2.62-2.13-4.75-4.75-4.75s-4.75,2.13-4.75,4.75" fill="#31ffff"/><path d="M117.75,250.75v-9.5h-9.5v4.75c0,2.62,2.13,4.75,4.75,4.75" fill="#31ffff"/><path d="M108.25,279.25v9.5h4.75c2.62,0,4.75-2.13,4.75-4.75s-2.13-4.75-4.75-4.75" fill="#31ffff"/><path d="M127.25,22.75v-9.5h-4.75c-2.62,0-4.75,2.13-4.75,4.75s2.13,4.75,4.75,4.75" fill="#31ffff"/><rect x="117.75" y="32.25" width="9.5" height="9.5" fill="#31ffff"/><circle cx="122.5" cy="65.5" r="4.75" fill="#31ffff"/><path d="M117.75,108.25v9.5h9.5v-4.75c0-2.62-2.13-4.75-4.75-4.75" fill="#31ffff"/><rect x="117.75" y="117.75" width="9.5" height="9.5" fill="#31ffff"/><path d="M127.25,127.25h-9.5v9.5h4.75c2.62,0,4.75-2.13,4.75-4.75" fill="#31ffff"/><rect x="117.75" y="146.25" width="9.5" height="9.5" fill="#31ffff"/><circle cx="122.5" cy="189" r="4.75" fill="#31ffff"/><path d="M127.25,231.75v-9.5h-4.75c-2.62,0-4.75,2.13-4.75,4.75s2.13,4.75,4.75,4.75" fill="#31ffff"/><path d="M117.75,241.25v9.5h9.5v-4.75c0-2.62-2.13-4.75-4.75-4.75" fill="#31ffff"/><path d="M127.25,260.25v-9.5h-9.5v4.75c0,2.62,2.13,4.75,4.75,4.75" fill="#31ffff"/><rect x="127.25" y="13.25" width="9.5" height="9.5" fill="#31ffff"/><rect x="127.25" y="32.25" width="9.5" height="9.5" fill="#31ffff"/><rect x="127.25" y="41.75" width="9.5" height="9.5" fill="#31ffff"/><path d="M136.75,51.25h-9.5v4.75c0,2.62,2.13,4.75,4.75,4.75s4.75-2.13,4.75-4.75" fill="#31ffff"/><circle cx="132" cy="75" r="4.75" fill="#31ffff"/><circle cx="132" cy="103.5" r="4.75" fill="#31ffff"/><rect x="127.25" y="146.25" width="9.5" height="9.5" fill="#31ffff"/><rect x="127.25" y="155.75" width="9.5" height="9.5" fill="#31ffff"/><path d="M136.75,174.75v-9.5h-9.5v4.75c0,2.62,2.13,4.75,4.75,4.75" fill="#31ffff"/><path d="M127.25,222.25h9.5v-4.75c0-2.62-2.13-4.75-4.75-4.75s-4.75,2.13-4.75,4.75" fill="#31ffff"/><rect x="127.25" y="222.25" width="9.5" height="9.5" fill="#31ffff"/><rect x="127.25" y="250.75" width="9.5" height="9.5" fill="#31ffff"/><circle cx="132" cy="274.5" r="4.75" fill="#31ffff"/><path d="M136.75,13.25v9.5h4.75c2.62,0,4.75-2.13,4.75-4.75s-2.13-4.75-4.75-4.75" fill="#31ffff"/><path d="M136.75,32.25v9.5h4.75c2.62,0,4.75-2.13,4.75-4.75s-2.13-4.75-4.75-4.75" fill="#31ffff"/><circle cx="141.5" cy="84.5" r="4.75" fill="#31ffff"/><path d="M146.25,127.25v-9.5h-4.75c-2.62,0-4.75,2.13-4.75,4.75s2.13,4.75,4.75,4.75" fill="#31ffff"/><path d="M136.75,146.25h9.5v-4.75c0-2.62-2.13-4.75-4.75-4.75s-4.75,2.13-4.75,4.75" fill="#31ffff"/><rect x="136.75" y="146.25" width="9.5" height="9.5" fill="#31ffff"/><rect x="136.75" y="165.25" width="9.5" height="9.5" fill="#31ffff"/><path d="M136.75,203.25h9.5v-9.5h-4.75c-2.62,0-4.75,2.13-4.75,4.75" fill="#31ffff"/><path d="M146.25,203.25h-9.5v4.75c0,2.62,2.13,4.75,4.75,4.75s4.75-2.13,4.75-4.75" fill="#31ffff"/><rect x="136.75" y="222.25" width="9.5" height="9.5" fill="#31ffff"/><rect x="136.75" y="250.75" width="9.5" height="9.5" fill="#31ffff"/><path d="M146.25,288.75v-9.5h-4.75c-2.62,0-4.75,2.13-4.75,4.75s2.13,4.75,4.75,4.75" fill="#31ffff"/><circle cx="151" cy="27.5" r="4.75" fill="#31ffff"/><path d="M146.25,70.25h9.5v-9.5h-4.75c-2.62,0-4.75,2.13-4.75,4.75" fill="#31ffff"/><path d="M155.75,70.25h-9.5v4.75c0,2.62,2.13,4.75,4.75,4.75s4.75-2.13,4.75-4.75" fill="#31ffff"/><path d="M155.75,108.25v-9.5h-4.75c-2.62,0-4.75,2.13-4.75,4.75s2.13,4.75,4.75,4.75" fill="#31ffff"/><rect x="146.25" y="117.75" width="9.5" height="9.5" fill="#31ffff"/><path d="M155.75,127.25h-9.5v4.75c0,2.62,2.13,4.75,4.75,4.75s4.75-2.13,4.75-4.75" fill="#31ffff"/><path d="M146.25,146.25v9.5h9.5v-4.75c0-2.62-2.13-4.75-4.75-4.75" fill="#31ffff"/><rect x="146.25" y="155.75" width="9.5" height="9.5" fill="#31ffff"/><path d="M155.75,165.25h-9.5v9.5h4.75c2.62,0,4.75-2.13,4.75-4.75" fill="#31ffff"/><path d="M146.25,193.75v9.5h4.75c2.62,0,4.75-2.13,4.75-4.75s-2.13-4.75-4.75-4.75" fill="#31ffff"/><path d="M146.25,222.25h9.5v-9.5h-4.75c-2.62,0-4.75,2.13-4.75,4.75" fill="#31ffff"/><path d="M155.75,222.25h-9.5v9.5h4.75c2.62,0,4.75-2.13,4.75-4.75" fill="#31ffff"/><rect x="146.25" y="250.75" width="9.5" height="9.5" fill="#31ffff"/><path d="M155.75,260.25h-9.5v4.75c0,2.62,2.13,4.75,4.75,4.75s4.75-2.13,4.75-4.75" fill="#31ffff"/><rect x="146.25" y="279.25" width="9.5" height="9.5" fill="#31ffff"/><path d="M155.75,51.25h9.5v-4.75c0-2.62-2.13-4.75-4.75-4.75s-4.75,2.13-4.75,4.75" fill="#31ffff"/><rect x="155.75" y="51.25" width="9.5" height="9.5" fill="#31ffff"/><rect x="155.75" y="60.75" width="9.5" height="9.5" fill="#31ffff"/><path d="M155.75,89.25h9.5v-4.75c0-2.62-2.13-4.75-4.75-4.75s-4.75,2.13-4.75,4.75" fill="#31ffff"/><rect x="155.75" y="89.25" width="9.5" height="9.5" fill="#31ffff"/><rect x="155.75" y="98.75" width="9.5" height="9.5" fill="#31ffff"/><rect x="155.75" y="117.75" width="9.5" height="9.5" fill="#31ffff"/><circle cx="160.5" cy="141.5" r="4.75" fill="#31ffff"/><path d="M155.75,155.75v9.5h4.75c2.62,0,4.75-2.13,4.75-4.75s-2.13-4.75-4.75-4.75" fill="#31ffff"/><path d="M155.75,212.75v9.5h4.75c2.62,0,4.75-2.13,4.75-4.75s-2.13-4.75-4.75-4.75" fill="#31ffff"/><path d="M155.75,250.75v9.5h4.75c2.62,0,4.75-2.13,4.75-4.75s-2.13-4.75-4.75-4.75" fill="#31ffff"/><path d="M155.75,279.25v9.5h4.75c2.62,0,4.75-2.13,4.75-4.75s-2.13-4.75-4.75-4.75" fill="#31ffff"/><circle cx="170" cy="18" r="4.75" fill="#31ffff"/><path d="M165.25,51.25v9.5h9.5v-4.75c0-2.62-2.13-4.75-4.75-4.75" fill="#31ffff"/><rect x="165.25" y="60.75" width="9.5" height="9.5" fill="#31ffff"/><path d="M174.75,70.25h-9.5v4.75c0,2.62,2.13,4.75,4.75,4.75s4.75-2.13,4.75-4.75" fill="#31ffff"/><rect x="165.25" y="98.75" width="9.5" height="9.5" fill="#31ffff"/><rect x="165.25" y="108.25" width="9.5" height="9.5" fill="#31ffff"/><rect x="165.25" y="117.75" width="9.5" height="9.5" fill="#31ffff"/><path d="M174.75,127.25h-9.5v4.75c0,2.62,2.13,4.75,4.75,4.75s4.75-2.13,4.75-4.75" fill="#31ffff"/><path d="M165.25,174.75h9.5v-9.5h-4.75c-2.62,0-4.75,2.13-4.75,4.75" fill="#31ffff"/><rect x="165.25" y="174.75" width="9.5" height="9.5" fill="#31ffff"/><rect x="165.25" y="184.25" width="9.5" height="9.5" fill="#31ffff"/><path d="M174.75,193.75h-9.5v4.75c0,2.62,2.13,4.75,4.75,4.75s4.75-2.13,4.75-4.75" fill="#31ffff"/><circle cx="170" cy="227" r="4.75" fill="#31ffff"/><path d="M174.75,32.25h9.5v-9.5h-4.75c-2.62,0-4.75,2.13-4.75,4.75" fill="#31ffff"/><path d="M184.25,41.75v-9.5h-9.5v4.75c0,2.62,2.13,4.75,4.75,4.75" fill="#31ffff"/><rect x="174.75" y="60.75" width="9.5" height="9.5" fill="#31ffff"/><path d="M174.75,98.75h9.5v-9.5h-4.75c-2.62,0-4.75,2.13-4.75,4.75" fill="#31ffff"/><rect x="174.75" y="98.75" width="9.5" height="9.5" fill="#31ffff"/><rect x="174.75" y="108.25" width="9.5" height="9.5" fill="#31ffff"/><rect x="174.75" y="117.75" width="9.5" height="9.5" fill="#31ffff"/><path d="M184.25,155.75v-9.5h-4.75c-2.62,0-4.75,2.13-4.75,4.75s2.13,4.75,4.75,4.75" fill="#31ffff"/><rect x="174.75" y="165.25" width="9.5" height="9.5" fill="#31ffff"/><path d="M184.25,212.75v-9.5h-4.75c-2.62,0-4.75,2.13-4.75,4.75s2.13,4.75,4.75,4.75" fill="#31ffff"/><path d="M174.75,260.25h9.5v-4.75c0-2.62-2.13-4.75-4.75-4.75s-4.75,2.13-4.75,4.75" fill="#31ffff"/><path d="M184.25,260.25h-9.5v4.75c0,2.62,2.13,4.75,4.75,4.75s4.75-2.13,4.75-4.75" fill="#31ffff"/><path d="M184.25,288.75v-9.5h-4.75c-2.62,0-4.75,2.13-4.75,4.75s2.13,4.75,4.75,4.75" fill="#31ffff"/><path d="M184.25,22.75h9.5v-4.75c0-2.62-2.13-4.75-4.75-4.75s-4.75,2.13-4.75,4.75" fill="#31ffff"/><rect x="184.25" y="22.75" width="9.5" height="9.5" fill="#31ffff"/><rect x="184.25" y="32.25" width="9.5" height="9.5" fill="#31ffff"/><path d="M193.75,41.75h-9.5v4.75c0,2.62,2.13,4.75,4.75,4.75s4.75-2.13,4.75-4.75" fill="#31ffff"/><rect x="184.25" y="60.75" width="9.5" height="9.5" fill="#31ffff"/><path d="M193.75,70.25h-9.5v4.75c0,2.62,2.13,4.75,4.75,4.75s4.75-2.13,4.75-4.75" fill="#31ffff"/><path d="M184.25,89.25v9.5h4.75c2.62,0,4.75-2.13,4.75-4.75s-2.13-4.75-4.75-4.75" fill="#31ffff"/><rect x="184.25" y="117.75" width="9.5" height="9.5" fill="#31ffff"/><rect x="184.25" y="146.25" width="9.5" height="9.5" fill="#31ffff"/><rect x="184.25" y="165.25" width="9.5" height="9.5" fill="#31ffff"/><path d="M193.75,174.75h-9.5v4.75c0,2.62,2.13,4.75,4.75,4.75s4.75-2.13,4.75-4.75" fill="#31ffff"/><path d="M184.25,203.25h9.5v-4.75c0-2.62-2.13-4.75-4.75-4.75s-4.75,2.13-4.75,4.75" fill="#31ffff"/><path d="M193.75,203.25h-9.5v9.5h4.75c2.62,0,4.75-2.13,4.75-4.75" fill="#31ffff"/><path d="M184.25,279.25v9.5h4.75c2.62,0,4.75-2.13,4.75-4.75s-2.13-4.75-4.75-4.75" fill="#31ffff"/><path d="M193.75,60.75h9.5v-9.5h-4.75c-2.62,0-4.75,2.13-4.75,4.75" fill="#31ffff"/><path d="M203.25,60.75h-9.5v9.5h4.75c2.62,0,4.75-2.13,4.75-4.75" fill="#31ffff"/><path d="M193.75,117.75h9.5v-4.75c0-2.62-2.13-4.75-4.75-4.75s-4.75,2.13-4.75,4.75" fill="#31ffff"/><path d="M203.25,117.75h-9.5v9.5h4.75c2.62,0,4.75-2.13,4.75-4.75" fill="#31ffff"/><path d="M193.75,146.25h9.5v-9.5h-4.75c-2.62,0-4.75,2.13-4.75,4.75" fill="#31ffff"/><rect x="193.75" y="146.25" width="9.5" height="9.5" fill="#31ffff"/><rect x="193.75" y="155.75" width="9.5" height="9.5" fill="#31ffff"/><path d="M203.25,165.25h-9.5v9.5h4.75c2.62,0,4.75-2.13,4.75-4.75" fill="#31ffff"/><path d="M203.25,193.75v-9.5h-4.75c-2.62,0-4.75,2.13-4.75,4.75s2.13,4.75,4.75,4.75" fill="#31ffff"/><path d="M193.75,222.25h9.5v-9.5h-4.75c-2.62,0-4.75,2.13-4.75,4.75" fill="#31ffff"/><rect x="193.75" y="222.25" width="9.5" height="9.5" fill="#31ffff"/><rect x="193.75" y="231.75" width="9.5" height="9.5" fill="#31ffff"/><rect x="193.75" y="241.25" width="9.5" height="9.5" fill="#31ffff"/><path d="M203.25,260.25v-9.5h-9.5v4.75c0,2.62,2.13,4.75,4.75,4.75" fill="#31ffff"/><circle cx="198.5" cy="274.5" r="4.75" fill="#31ffff"/><path d="M203.25,22.75h9.5v-4.75c0-2.62-2.13-4.75-4.75-4.75s-4.75,2.13-4.75,4.75" fill="#31ffff"/><rect x="203.25" y="22.75" width="9.5" height="9.5" fill="#31ffff"/><path d="M212.75,32.25h-9.5v4.75c0,2.62,2.13,4.75,4.75,4.75s4.75-2.13,4.75-4.75" fill="#31ffff"/><path d="M203.25,51.25v9.5h4.75c2.62,0,4.75-2.13,4.75-4.75s-2.13-4.75-4.75-4.75" fill="#31ffff"/><path d="M203.25,79.75h9.5v-4.75c0-2.62-2.13-4.75-4.75-4.75s-4.75,2.13-4.75,4.75" fill="#31ffff"/><rect x="203.25" y="79.75" width="9.5" height="9.5" fill="#31ffff"/><path d="M212.75,98.75v-9.5h-9.5v4.75c0,2.62,2.13,4.75,4.75,4.75" fill="#31ffff"/><path d="M203.25,136.75h9.5v-9.5h-4.75c-2.62,0-4.75,2.13-4.75,4.75" fill="#31ffff"/><rect x="203.25" y="136.75" width="9.5" height="9.5" fill="#31ffff"/><rect x="203.25" y="146.25" width="9.5" height="9.5" fill="#31ffff"/><path d="M203.25,184.25v9.5h4.75c2.62,0,4.75-2.13,4.75-4.75s-2.13-4.75-4.75-4.75" fill="#31ffff"/><path d="M203.25,212.75h9.5v-9.5h-4.75c-2.62,0-4.75,2.13-4.75,4.75" fill="#31ffff"/><rect x="203.25" y="212.75" width="9.5" height="9.5" fill="#31ffff"/><rect x="203.25" y="222.25" width="9.5" height="9.5" fill="#31ffff"/><rect x="203.25" y="231.75" width="9.5" height="9.5" fill="#31ffff"/><rect x="203.25" y="241.25" width="9.5" height="9.5" fill="#31ffff"/><rect x="203.25" y="250.75" width="9.5" height="9.5" fill="#31ffff"/><path d="M212.75,89.25v9.5h9.5v-4.75c0-2.62-2.13-4.75-4.75-4.75" fill="#31ffff"/><rect x="212.75" y="98.75" width="9.5" height="9.5" fill="#31ffff"/><path d="M222.25,108.25h-9.5v4.75c0,2.62,2.13,4.75,4.75,4.75s4.75-2.13,4.75-4.75" fill="#31ffff"/><rect x="212.75" y="127.25" width="9.5" height="9.5" fill="#31ffff"/><path d="M212.75,146.25v9.5h9.5v-4.75c0-2.62-2.13-4.75-4.75-4.75" fill="#31ffff"/><rect x="212.75" y="155.75" width="9.5" height="9.5" fill="#31ffff"/><rect x="212.75" y="165.25" width="9.5" height="9.5" fill="#31ffff"/><path d="M222.25,174.75h-9.5v4.75c0,2.62,2.13,4.75,4.75,4.75s4.75-2.13,4.75-4.75" fill="#31ffff"/><path d="M212.75,203.25h9.5v-4.75c0-2.62-2.13-4.75-4.75-4.75s-4.75,2.13-4.75,4.75" fill="#31ffff"/><rect x="212.75" y="203.25" width="9.5" height="9.5" fill="#31ffff"/><rect x="212.75" y="241.25" width="9.5" height="9.5" fill="#31ffff"/><rect x="212.75" y="250.75" width="9.5" height="9.5" fill="#31ffff"/><path d="M222.25,288.75v-9.5h-4.75c-2.62,0-4.75,2.13-4.75,4.75s2.13,4.75,4.75,4.75" fill="#31ffff"/><path d="M222.25,98.75v9.5h4.75c2.62,0,4.75-2.13,4.75-4.75s-2.13-4.75-4.75-4.75" fill="#31ffff"/><rect x="222.25" y="127.25" width="9.5" height="9.5" fill="#31ffff"/><path d="M222.25,155.75v9.5h4.75c2.62,0,4.75-2.13,4.75-4.75s-2.13-4.75-4.75-4.75" fill="#31ffff"/><rect x="222.25" y="203.25" width="9.5" height="9.5" fill="#31ffff"/><circle cx="227" cy="227" r="4.75" fill="#31ffff"/><rect x="222.25" y="241.25" width="9.5" height="9.5" fill="#31ffff"/><rect x="222.25" y="250.75" width="9.5" height="9.5" fill="#31ffff"/><rect x="222.25" y="260.25" width="9.5" height="9.5" fill="#31ffff"/><rect x="222.25" y="269.75" width="9.5" height="9.5" fill="#31ffff"/><rect x="222.25" y="279.25" width="9.5" height="9.5" fill="#31ffff"/><path d="M231.75,117.75h9.5v-9.5h-4.75c-2.62,0-4.75,2.13-4.75,4.75" fill="#31ffff"/><rect x="231.75" y="117.75" width="9.5" height="9.5" fill="#31ffff"/><path d="M241.25,127.25h-9.5v9.5h4.75c2.62,0,4.75-2.13,4.75-4.75" fill="#31ffff"/><path d="M241.25,155.75v-9.5h-4.75c-2.62,0-4.75,2.13-4.75,4.75s2.13,4.75,4.75,4.75" fill="#31ffff"/><path d="M241.25,184.25v-9.5h-4.75c-2.62,0-4.75,2.13-4.75,4.75s2.13,4.75,4.75,4.75" fill="#31ffff"/><path d="M231.75,203.25h9.5v-9.5h-4.75c-2.62,0-4.75,2.13-4.75,4.75" fill="#31ffff"/><rect x="231.75" y="203.25" width="9.5" height="9.5" fill="#31ffff"/><rect x="231.75" y="241.25" width="9.5" height="9.5" fill="#31ffff"/><path d="M241.25,250.75h-9.5v9.5h4.75c2.62,0,4.75-2.13,4.75-4.75" fill="#31ffff"/><rect x="231.75" y="279.25" width="9.5" height="9.5" fill="#31ffff"/><path d="M241.25,108.25v9.5h4.75c2.62,0,4.75-2.13,4.75-4.75s-2.13-4.75-4.75-4.75" fill="#31ffff"/><rect x="241.25" y="146.25" width="9.5" height="9.5" fill="#31ffff"/><path d="M250.75,155.75h-9.5v4.75c0,2.62,2.13,4.75,4.75,4.75s4.75-2.13,4.75-4.75" fill="#31ffff"/><rect x="241.25" y="174.75" width="9.5" height="9.5" fill="#31ffff"/><rect x="241.25" y="193.75" width="9.5" height="9.5" fill="#31ffff"/><rect x="241.25" y="203.25" width="9.5" height="9.5" fill="#31ffff"/><rect x="241.25" y="212.75" width="9.5" height="9.5" fill="#31ffff"/><rect x="241.25" y="222.25" width="9.5" height="9.5" fill="#31ffff"/><rect x="241.25" y="231.75" width="9.5" height="9.5" fill="#31ffff"/><rect x="241.25" y="241.25" width="9.5" height="9.5" fill="#31ffff"/><path d="M241.25,279.25h9.5v-9.5h-4.75c-2.62,0-4.75,2.13-4.75,4.75" fill="#31ffff"/><path d="M250.75,279.25h-9.5v9.5h4.75c2.62,0,4.75-2.13,4.75-4.75" fill="#31ffff"/><path d="M260.25,108.25v-9.5h-4.75c-2.62,0-4.75,2.13-4.75,4.75s2.13,4.75,4.75,4.75" fill="#31ffff"/><path d="M250.75,136.75h9.5v-9.5h-4.75c-2.62,0-4.75,2.13-4.75,4.75" fill="#31ffff"/><rect x="250.75" y="136.75" width="9.5" height="9.5" fill="#31ffff"/><rect x="250.75" y="146.25" width="9.5" height="9.5" fill="#31ffff"/><rect x="250.75" y="174.75" width="9.5" height="9.5" fill="#31ffff"/><path d="M250.75,193.75v9.5h9.5v-4.75c0-2.62-2.13-4.75-4.75-4.75" fill="#31ffff"/><path d="M260.25,203.25h-9.5v9.5h4.75c2.62,0,4.75-2.13,4.75-4.75" fill="#31ffff"/><path d="M250.75,231.75v9.5h9.5v-4.75c0-2.62-2.13-4.75-4.75-4.75" fill="#31ffff"/><rect x="250.75" y="241.25" width="9.5" height="9.5" fill="#31ffff"/><rect x="250.75" y="250.75" width="9.5" height="9.5" fill="#31ffff"/><rect x="250.75" y="260.25" width="9.5" height="9.5" fill="#31ffff"/><rect x="250.75" y="269.75" width="9.5" height="9.5" fill="#31ffff"/><path d="M260.25,98.75h9.5v-9.5h-4.75c-2.62,0-4.75,2.13-4.75,4.75" fill="#31ffff"/><rect x="260.25" y="98.75" width="9.5" height="9.5" fill="#31ffff"/><path d="M260.25,127.25h9.5v-9.5h-4.75c-2.62,0-4.75,2.13-4.75,4.75" fill="#31ffff"/><rect x="260.25" y="127.25" width="9.5" height="9.5" fill="#31ffff"/><rect x="260.25" y="146.25" width="9.5" height="9.5" fill="#31ffff"/><path d="M269.75,155.75h-9.5v4.75c0,2.62,2.13,4.75,4.75,4.75s4.75-2.13,4.75-4.75" fill="#31ffff"/><path d="M260.25,174.75v9.5h4.75c2.62,0,4.75-2.13,4.75-4.75s-2.13-4.75-4.75-4.75" fill="#31ffff"/><path d="M269.75,222.25v-9.5h-4.75c-2.62,0-4.75,2.13-4.75,4.75s2.13,4.75,4.75,4.75" fill="#31ffff"/><path d="M260.25,241.25v9.5h4.75c2.62,0,4.75-2.13,4.75-4.75s-2.13-4.75-4.75-4.75" fill="#31ffff"/><path d="M260.25,260.25v9.5h9.5v-4.75c0-2.62-2.13-4.75-4.75-4.75" fill="#31ffff"/><rect x="260.25" y="269.75" width="9.5" height="9.5" fill="#31ffff"/><path d="M269.75,279.25h-9.5v4.75c0,2.62,2.13,4.75,4.75,4.75s4.75-2.13,4.75-4.75" fill="#31ffff"/><path d="M269.75,89.25v9.5h9.5v-4.75c0-2.62-2.13-4.75-4.75-4.75" fill="#31ffff"/><rect x="269.75" y="98.75" width="9.5" height="9.5" fill="#31ffff"/><rect x="269.75" y="108.25" width="9.5" height="9.5" fill="#31ffff"/><rect x="269.75" y="117.75" width="9.5" height="9.5" fill="#31ffff"/><path d="M279.25,127.25h-9.5v9.5h4.75c2.62,0,4.75-2.13,4.75-4.75" fill="#31ffff"/><rect x="269.75" y="146.25" width="9.5" height="9.5" fill="#31ffff"/><path d="M269.75,193.75h9.5v-4.75c0-2.62-2.13-4.75-4.75-4.75s-4.75,2.13-4.75,4.75" fill="#31ffff"/><rect x="269.75" y="193.75" width="9.5" height="9.5" fill="#31ffff"/><rect x="269.75" y="203.25" width="9.5" height="9.5" fill="#31ffff"/><rect x="269.75" y="212.75" width="9.5" height="9.5" fill="#31ffff"/><path d="M279.25,231.75v-9.5h-9.5v4.75c0,2.62,2.13,4.75,4.75,4.75" fill="#31ffff"/><path d="M279.25,98.75v9.5h4.75c2.62,0,4.75-2.13,4.75-4.75s-2.13-4.75-4.75-4.75" fill="#31ffff"/><path d="M279.25,146.25h9.5v-4.75c0-2.62-2.13-4.75-4.75-4.75s-4.75,2.13-4.75,4.75" fill="#31ffff"/><rect x="279.25" y="146.25" width="9.5" height="9.5" fill="#31ffff"/><path d="M288.75,155.75h-9.5v4.75c0,2.62,2.13,4.75,4.75,4.75s4.75-2.13,4.75-4.75" fill="#31ffff"/><path d="M279.25,193.75v9.5h9.5v-4.75c0-2.62-2.13-4.75-4.75-4.75" fill="#31ffff"/><rect x="279.25" y="203.25" width="9.5" height="9.5" fill="#31ffff"/><rect x="279.25" y="212.75" width="9.5" height="9.5" fill="#31ffff"/><rect x="279.25" y="222.25" width="9.5" height="9.5" fill="#31ffff"/><rect x="279.25" y="231.75" width="9.5" height="9.5" fill="#31ffff"/><rect x="279.25" y="241.25" width="9.5" height="9.5" fill="#31ffff"/><path d="M288.75,250.75h-9.5v4.75c0,2.62,2.13,4.75,4.75,4.75s4.75-2.13,4.75-4.75" fill="#31ffff"/><circle cx="284" cy="284" r="4.75" fill="#31ffff"/><path d="M13.25,37v19c0,13.12,10.63,23.75,23.75,23.75h19c13.12,0,23.75-10.63,23.75-23.75v-19c0-13.12-10.63-23.75-23.75-23.75h-19c-13.12,0-23.75,10.63-23.75,23.75M37,22.75h19c7.87,0,14.25,6.38,14.25,14.25v19c0,7.87-6.38,14.25-14.25,14.25h-19c-7.87,0-14.25-6.38-14.25-14.25v-19c0-7.87,6.38-14.25,14.25-14.25" fill="#31ffff"/><rect x="32.25" y="32.25" width="28.5" height="28.5" rx="7.12" ry="7.12" fill="#31ffff"/><path d="M265,13.25h-19c-13.12,0-23.75,10.63-23.75,23.75v19c0,13.12,10.63,23.75,23.75,23.75h19c13.12,0,23.75-10.63,23.75-23.75v-19c0-13.12-10.63-23.75-23.75-23.75M279.25,37v19c0,7.87-6.38,14.25-14.25,14.25h-19c-7.87,0-14.25-6.38-14.25-14.25v-19c0-7.87,6.38-14.25,14.25-14.25h19c7.87,0,14.25,6.38,14.25,14.25" fill="#31ffff"/><rect x="241.25" y="32.25" width="28.5" height="28.5" rx="7.12" ry="7.12" fill="#31ffff"/><path d="M37,288.75h19c13.12,0,23.75-10.63,23.75-23.75v-19c0-13.12-10.63-23.75-23.75-23.75h-19c-13.12,0-23.75,10.63-23.75,23.75v19c0,13.12,10.63,23.75,23.75,23.75M22.75,265v-19c0-7.87,6.38-14.25,14.25-14.25h19c7.87,0,14.25,6.38,14.25,14.25h0v19c0,7.87-6.38,14.25-14.25,14.25h-19c-7.87,0-14.25-6.38-14.25-14.25h0" fill="#31ffff"/><rect x="32.25" y="241.25" width="28.5" height="28.5" rx="7.12" ry="7.12" fill="#31ffff"/></g></svg>